<svg width="30" height="28" viewBox="0 0 30 28" fill="none" xmlns="http://www.w3.org/2000/svg">
<g clip-path="url(#clip0_457_1203)">
<path d="M16.25 3.5C10.0375 3.5 5 8.20167 5 14H1.25L6.1125 18.5383L6.2 18.7017L11.25 14H7.5C7.5 9.485 11.4125 5.83333 16.25 5.83333C21.0875 5.83333 25 9.485 25 14C25 18.515 21.0875 22.1667 16.25 22.1667C13.8375 22.1667 11.65 21.245 10.075 19.7633L8.3 21.42C10.3375 23.3217 13.1375 24.5 16.25 24.5C22.4625 24.5 27.5 19.7983 27.5 14C27.5 8.20167 22.4625 3.5 16.25 3.5ZM15 9.33333V15.1667L20.35 18.13L21.25 16.7183L16.875 14.2917V9.33333H15Z" fill="white"/>
</g>
<defs>
<clipPath id="clip0_457_1203">
<rect width="30" height="28" fill="white"/>
</clipPath>
</defs>
</svg>
